<?xml version="1.0" encoding="UTF-8" standalone="no"?>
<svg width="200" height="200" viewBox="0 0 200 200" fill="none" xmlns="http://www.w3.org/2000/svg">
  <rect width="200" height="200" rx="20" fill="#3B82F6"/>
  <!-- CSV Text -->
  <text x="50" y="80" font-family="sans-serif" font-size="40" font-weight="bold" fill="white">CSV</text>
  
  <!-- Arrow -->
  <path d="M100 90 L100 110 L120 100 Z" fill="white"/>
  
  <!-- JSON Text -->
  <text x="50" y="140" font-family="sans-serif" font-size="40" font-weight="bold" fill="white">JSON</text>
  
  <!-- Document icons -->
  <g transform="translate(140, 60) scale(0.8)">
    <rect x="0" y="0" width="30" height="40" rx="2" fill="white"/>
    <line x1="5" y1="8" x2="25" y2="8" stroke="#3B82F6" stroke-width="2"/>
    <line x1="5" y1="14" x2="25" y2="14" stroke="#3B82F6" stroke-width="2"/>
    <line x1="5" y1="20" x2="15" y2="20" stroke="#3B82F6" stroke-width="2"/>
  </g>
  
  <g transform="translate(140, 120) scale(0.8)">
    <rect x="0" y="0" width="30" height="40" rx="2" fill="white"/>
    <path d="M5,10 L8,8 L11,10 L14,5 L17,15 L20,10 L25,10" stroke="#3B82F6" stroke-width="2" fill="none"/>
    <line x1="5" y1="20" x2="25" y2="20" stroke="#3B82F6" stroke-width="2"/>
    <line x1="5" y1="26" x2="20" y2="26" stroke="#3B82F6" stroke-width="2"/>
  </g>
</svg> 